PathFileType	3	(X/Y/Z)	C:\Users\koon_\Desktop\
DataRate	CameraRate	NumFrames	NumMarkers	Units	OrigDataRate	OrigDataStartFrame	OrigNumFrames
100.0	100.0	14	27	mm	100.0	2854	3804	
Frame#	Time	get:LFHD			get:RFHD			get:LBHD			get:RBHD			get:C7			get:T10			get:CLAV			get:STRN			get:RBAK			get:LSHO			get:LUPA			get:LELB			get:LFRA			get:LWRA			get:LWRB			get:LFIN			get:RSHO			get:RUPA			get:RELB			get:RFRA			get:RWRA			get:RWRB			get:RFIN			get:LASI			get:RASI			get:LPSI			get:RPSI			
		X1	Y1	Z1	X2	Y2	Z2	X3	Y3	Z3	X4	Y4	Z4	X5	Y5	Z5	X6	Y6	Z6	X7	Y7	Z7	X8	Y8	Z8	X9	Y9	Z9	X10	Y10	Z10	X11	Y11	Z11	X12	Y12	Z12	X13	Y13	Z13	X14	Y14	Z14	X15	Y15	Z15	X16	Y16	Z16	X17	Y17	Z17	X18	Y18	Z18	X19	Y19	Z19	X20	Y20	Z20	X21	Y21	Z21	X22	Y22	Z22	X23	Y23	Z23	X24	Y24	Z24	X25	Y25	Z25	X26	Y26	Z26	X27	Y27	Z27	
2854	28.53	148.63535	1541.3883	-31.948238	9.3761358	1530.0029	-51.180763	147.2411	1539.3206	-194.29752	21.444057	1504.5978	-216.02751	91.874916	1316.4645	-214.78435	69.545067	1117.6146	-257.71548	102.22959	1243.2805	-18.577372	100.93145	1049.9624	11.457433	-6.4911976	1250.1141	-226.3304	214.07289	1323.1235	-129.27408	306.3183	1254.8522	-49.087288	348.01672	1158.8414	96.281998	266.28281	1266.3319	121.51229	203.61484	1321.4016	146.58627	259.20148	1306.3046	211.65868	246.40001	1397.5781	178.44908	-19.698168	1325.4683	-108.38953	-112.66783	1226.8483	38.679607	-166.38278	1137.4818	114.56796	-129.61119	1218.6747	109.21841	-33.192623	1321.1838	164.34267	-60.836296	1298.2712	236.7308	-65.829117	1389.52	217.35435	209.21538	875.24854	-39.706245	-58.876984	868.95081	-26.785818	107.78444	908.09229	-257.7934	17.762697	908.43671	-254.60922
2855	28.54	146.88994	1540.6888	-31.282988	7.8736076	1529.4531	-52.592712	147.87503	1538.6887	-193.58304	22.288717	1504.1027	-217.16411	93.109047	1315.6326	-214.96568	71.458702	1116.5591	-258.00787	99.587769	1242.8459	-18.589287	97.979126	1049.5399	12.002546	-5.0422182	1249.0498	-228.26704	213.49228	1322.4058	-127.33924	304.2551	1254.3967	-45.259331	342.98999	1158.9926	101.32021	260.74088	1266.6792	123.89252	197.4485	1321.9857	147.10805	251.90094	1307.3966	213.33498	239.76839	1398.452	179.14754	-20.681068	1324.7665	-110.7791	-117.3204	1226.2659	34.005131	-172.90674	1136.9822	108.53255	-136.20583	1218.1686	102.96057	-40.335617	1321.6851	157.79684	-70.4608	1299.2635	230.96283	-74.946472	1390.2631	210.20485	207.49629	874.73108	-37.114216	-60.717186	868.62891	-28.364937	109.32763	906.79138	-256.51047	19.393997	907.28076	-255.04494
2856	28.55	145.01901	1540.0253	-30.59977	6.2776399	1528.9563	-53.95166	148.45599	1538.0546	-192.82227	23.193895	1503.6208	-218.41644	94.25592	1314.7974	-215.1472	73.473328	1115.4849	-258.14938	96.880913	1242.3826	-18.608763	95.015961	1049.2539	12.375227	-3.4514008	1248.0593	-230.30031	212.97704	1321.7784	-125.32575	301.92596	1253.911	-41.367462	337.81094	1159.1406	106.2156	255.20122	1266.9445	126.22786	191.41959	1322.6726	147.4135	244.66821	1308.491	214.87216	233.21263	1399.2683	179.74767	-21.331606	1324.1595	-113.37996	-122.14677	1225.8448	29.055822	-179.2959	1136.5255	102.27211	-142.30634	1217.6101	96.72493	-49.416698	1321.6996	152.49927	-80.018074	1300.1919	224.97168	-83.942909	1391.036	203.15759	205.67848	874.22681	-34.514042	-62.649345	868.46979	-29.888792	111.00617	905.73248	-255.56702	21.026499	906.26318	-255.65132
2857	28.56	143.20515	1539.3806	-29.866537	4.6077538	1528.4819	-55.420567	149.05315	1537.4388	-192.0627	24.087011	1503.1324	-219.62383	95.442787	1313.9697	-215.22733	75.473427	1114.5143	-258.20987	95.003647	1241.8673	-17.811186	91.938919	1048.9146	12.688012	-1.8531911	1247.1278	-232.20328	212.37076	1321.1744	-123.24061	299.48489	1253.3435	-37.509041	332.54407	1159.2051	110.98679	249.59454	1267.3037	128.38043	185.04602	1323.0333	148.22864	237.29124	1309.5662	216.55769	226.81294	1400.0697	180.23323	-22.600126	1323.5559	-116.02122	-126.02259	1225.1693	24.259844	-185.62074	1136.1205	95.921967	-148.51501	1217.1722	90.335197	-56.839939	1322.0822	146.51382	-89.426033	1301.0923	218.99469	-92.956688	1391.798	196.14612	203.72694	873.72052	-31.900436	-64.64415	868.31793	-31.438437	112.60529	904.60559	-254.42767	22.661974	905.12878	-255.97429
2858	28.57	141.24855	1538.7725	-29.150684	2.9949861	1528.031	-56.849815	149.57274	1536.8535	-191.29485	25.043098	1502.6881	-220.79767	96.616127	1313.2218	-215.21582	77.455048	1113.5023	-258.07486	91.98587	1241.6796	-18.28133	88.806511	1048.635	13.280289	0.14290132	1246.4817	-234.65759	211.70456	1320.6307	-121.10638	297.19263	1253.1542	-33.524582	327.17963	1159.361	115.70164	243.90721	1267.5898	130.73599	179.10544	1323.6722	148.55461	230.17854	1310.6423	218.0071	220.76534	1400.8955	180.53304	-23.452745	1322.9371	-118.46934	-130.41789	1224.6064	19.434734	-191.80225	1135.7744	89.437454	-154.84364	1216.918	83.894135	-64.884598	1322.0313	141.94113	-98.690041	1302.0358	212.95259	-101.82288	1392.551	189.09877	201.71309	873.2746	-29.228493	-66.605728	868.27417	-33.087173	114.17459	903.5835	-253.28058	24.205606	904.15222	-256.36865
2859	28.58	139.32036	1538.2258	-28.458979	1.5128423	1527.576	-58.154762	150.08501	1536.3032	-190.40839	25.900436	1502.2188	-221.7067	97.740143	1312.4628	-215.16489	79.514091	1112.6058	-257.97961	89.208542	1241.324	-18.300325	85.668083	1048.5214	14.285713	1.4319658	1245.3007	-235.90901	211.00557	1320.1045	-118.83926	294.74231	1252.7965	-29.601061	321.7666	1159.459	120.38773	238.3335	1267.7482	132.67612	173.82114	1324.0822	149.27663	223.12207	1311.7766	219.3405	214.21927	1401.6449	181.08549	-24.231825	1322.4144	-121.15093	-134.66626	1224.2095	14.335962	-197.81767	1135.451	82.879814	-161.05263	1216.645	77.396248	-72.308952	1322.4739	135.93008	-107.85898	1302.9561	206.72127	-110.64751	1393.2695	182.05637	199.64758	872.87134	-26.624947	-68.581963	868.28296	-34.791965	115.70057	902.68872	-252.2859	25.811453	903.20581	-256.6785
2860	28.59	137.33858	1537.6593	-27.793175	0.034115784	1527.2041	-59.480824	150.5929	1535.7137	-189.49107	26.777203	1501.7815	-222.6861	98.932587	1311.7021	-214.97914	81.573097	1111.7236	-257.79788	86.434372	1241.0028	-18.328009	82.505463	1048.4246	14.890113	3.1164992	1244.4432	-237.61015	210.39484	1319.619	-116.58137	292.18613	1252.5046	-25.607048	316.38269	1159.5803	124.85221	232.98083	1268.0902	134.6376	168.09088	1324.6919	149.57605	216.14714	1312.9109	220.58667	208.0506	1402.4653	181.20911	-24.968527	1321.9327	-123.77376	-138.83969	1223.8876	9.218749	-203.67749	1135.1849	76.064835	-166.97304	1216.4283	70.839386	-80.053467	1322.4043	131.48117	-116.85335	1303.9265	200.43283	-119.26829	1393.9935	174.82529	197.58398	872.42218	-23.998363	-70.493698	868.18835	-36.067467	117.09178	901.61316	-250.84802	27.260004	902.24512	-256.7522
2861	28.6	135.34608	1537.1094	-27.08058	-1.4333103	1526.838	-60.830219	151.04155	1535.1421	-188.60114	27.616512	1501.4058	-223.69994	100.08457	1311.0322	-214.86046	83.640495	1110.8837	-257.4888	83.652824	1240.769	-18.366062	79.227272	1048.3497	15.323887	4.8960304	1243.5834	-239.28101	210.11797	1319.1392	-114.31042	289.54214	1252.2574	-21.618834	310.9874	1159.8436	129.34212	227.57153	1268.3984	136.65746	162.08789	1324.8419	150.67818	209.09978	1314.0278	221.81969	201.89244	1403.2999	181.44185	-25.501911	1321.4563	-126.54037	-143.07744	1223.6832	3.9472511	-209.44769	1134.9932	69.31395	-172.57065	1216.2186	64.266312	-87.19548	1323.0265	125.34969	-125.97008	1304.9135	193.91119	-127.82228	1394.7474	167.27716	195.48132	871.97546	-21.47823	-72.41983	868.1015	-37.81282	118.34303	900.64447	-249.51161	28.628286	901.32947	-256.88882
2862	28.61	133.31842	1536.6073	-26.311289	-2.938699	1526.3839	-61.901588	151.4348	1534.6293	-187.61887	28.520956	1501.0759	-224.74454	101.36494	1310.2865	-214.57161	85.664963	1109.9746	-257.02124	80.874222	1240.5715	-18.475115	75.997353	1048.2395	15.673829	6.6750288	1242.7155	-240.85988	208.61591	1318.6301	-112.0304	286.88086	1252.0511	-17.638641	305.15192	1160.0663	133.92596	222.46606	1268.7953	138.58643	156.35265	1325.3755	150.98837	201.88034	1315.0607	223.03554	195.65506	1403.9559	181.84285	-25.890871	1321.1858	-129.50307	-147.18932	1223.4348	-1.3527887	-215.01907	1134.8478	62.409401	-177.64224	1215.9417	57.650383	-94.499626	1323.4713	119.49067	-134.91414	1305.9667	187.31056	-136.08153	1395.5857	159.70853	193.3542	871.56598	-18.978481	-74.243774	867.94855	-39.13681	119.47112	899.71906	-247.94031	29.901272	900.48999	-256.81668
2863	28.62	131.2245	1536.1282	-25.623466	-4.3422036	1525.9493	-63.776604	151.80424	1534.1599	-186.64865	29.365942	1500.6727	-225.67635	102.51765	1309.6057	-214.29588	87.661324	1109.0833	-256.53931	78.041046	1240.3843	-18.505161	72.78157	1048.1443	16.134666	8.5617838	1241.9207	-242.44724	207.72266	1318.2175	-109.75526	284.15234	1251.9041	-13.624748	299.10944	1160.3088	138.37973	216.60812	1268.9938	140.60869	150.74971	1326.1129	151.16559	194.65079	1316.0834	224.25488	189.46271	1404.7069	182.35321	-26.755766	1320.6521	-131.31293	-150.85503	1223.259	-6.6854701	-220.42673	1134.7813	55.337944	-182.94453	1215.9399	50.636066	-101.58469	1323.8258	113.9447	-143.85704	1307.123	180.71066	-144.27217	1396.4303	151.83994	191.2614	871.22473	-16.483461	-76.075272	867.75635	-40.689236	120.48959	898.8866	-246.53575	31.116831	899.69763	-256.84164
2864	28.63	129.09581	1535.6484	-24.938969	-5.8784585	1525.5786	-65.174416	152.1711	1533.6584	-185.6219	30.256374	1500.2909	-226.59969	103.7352	1308.8948	-213.83745	89.696678	1108.3688	-256.26495	75.264458	1240.2617	-18.48704	69.453499	1048.052	16.520769	10.456112	1241.1094	-243.90518	206.76207	1317.8353	-107.40279	281.40286	1251.8171	-9.6055822	293.28854	1160.6124	142.87227	211.72621	1269.6168	142.52313	145.31261	1326.953	151.36044	187.29053	1317.0961	225.48723	183.37141	1405.5316	182.88063	-27.274576	1320.0609	-133.87927	-154.35226	1223.0596	-11.919936	-225.65591	1134.7697	48.353989	-188.18683	1215.8503	43.826904	-108.53216	1324.2904	108.09639	-152.61511	1308.3518	173.9893	-152.20546	1397.2487	143.99437	189.05687	870.82166	-14.007178	-77.931488	867.45441	-42.138477	121.40113	898.23639	-245.07594	32.173538	898.9386	-256.75729
2865	28.64	126.96749	1535.1866	-24.324497	-7.3299809	1525.1705	-66.601395	152.50537	1533.1636	-184.54619	31.176828	1499.9316	-227.61098	104.9345	1308.1729	-213.40662	91.577431	1107.4109	-255.43013	72.540703	1240.2288	-18.270025	66.086548	1047.7004	17.189734	12.345607	1240.1821	-245.16054	205.89221	1317.4531	-105.0441	278.51611	1251.7219	-5.6980519	287.30554	1160.9144	147.20786	205.99007	1270.1865	144.58243	140.11395	1327.6964	151.39261	179.91847	1318.1311	226.57631	177.24232	1406.2872	183.30495	-27.719282	1319.5645	-136.37646	-157.82813	1222.9425	-17.391237	-230.81487	1134.799	40.990852	-193.22742	1215.876	36.870789	-115.32726	1324.8436	102.18771	-161.19817	1309.5397	167.19987	-159.40912	1398.1708	136.00789	186.75476	870.43402	-11.553726	-79.760559	867.16016	-43.437481	122.23658	897.56134	-243.5867	33.125736	898.20239	-256.58679
2866	28.65	124.7908	1534.7788	-23.593687	-8.8625994	1524.7947	-68.030457	152.82719	1532.6702	-183.50182	32.059238	1499.5018	-228.38364	106.11447	1307.511	-213.01534	93.530106	1106.5692	-254.73079	69.729752	1240.194	-17.834887	62.833443	1047.4996	17.640839	14.243002	1239.2914	-246.36153	204.71567	1317.0699	-102.64026	275.50949	1251.6556	-1.6189272	281.22488	1161.3157	151.56236	199.08797	1270.4962	146.51959	133.21989	1327.9625	151.72925	172.57518	1319.2094	227.56473	170.56403	1407.2174	183.55188	-28.51594	1319.0748	-139.06131	-161.07858	1222.6791	-21.838039	-235.74312	1134.8962	33.780415	-198.13292	1216.0576	29.899584	-122.05554	1325.5276	96.195648	-169.54608	1310.7408	160.33733	-167.38312	1399.142	128.38524	184.45164	870.07355	-9.1480579	-81.631004	866.79456	-44.734013	122.90207	896.94019	-242.112	33.991127	897.52899	-256.44153
2867	28.66	122.56851	1534.3898	-22.989531	-10.355792	1524.4335	-69.470718	153.11845	1532.1608	-182.38937	32.987225	1499.0118	-229.10855	107.2331	1306.7946	-212.36571	95.335854	1105.6895	-253.81053	66.950897	1239.733	-19.189066	59.728168	1047.1709	16.34705	16.197659	1238.411	-247.5361	203.67168	1316.6499	-100.21661	272.33252	1251.5421	2.3007212	275.05765	1161.8138	155.82582	193.6433	1271.0752	148.40919	127.24287	1328.5906	151.87799	165.30069	1320.4219	228.47711	164.1452	1408.0621	183.63373	-28.88896	1318.5916	-141.32224	-164.61143	1222.6801	-26.814137	-240.54741	1135.0137	26.6868	-202.7419	1216.3414	22.573591	-128.59409	1326.1976	90.269989	-177.73633	1311.9928	153.47107	-174.62526	1400.4329	118.39442	182.03236	869.70111	-6.7438745	-83.569801	866.49438	-46.133667	123.59361	896.40332	-240.65791	34.865837	896.91852	-256.23877
